<svg width="84" height="84" viewBox="0 0 84 84" fill="none" xmlns="http://www.w3.org/2000/svg">
<path d="M42 52.5V52.535M42 31.5V38.5V31.5Z" stroke="#ED4C5C" stroke-width="4" stroke-linecap="round" stroke-linejoin="round"/>
<path d="M17.5 66.5013H66.5C67.6421 66.4932 68.7649 66.2059 69.7704 65.6643C70.7759 65.1227 71.6336 64.3433 72.2687 63.3941C72.9039 62.4449 73.2971 61.3547 73.4141 60.2186C73.5311 59.0825 73.3683 57.935 72.94 56.8763L48.09 14.0013C47.4847 12.9072 46.5973 11.9952 45.5201 11.3601C44.443 10.7251 43.2154 10.3901 41.965 10.3901C40.7146 10.3901 39.487 10.7251 38.4099 11.3601C37.3327 11.9952 36.4454 12.9072 35.84 14.0013L10.99 56.8763C10.5698 57.9108 10.4032 59.0308 10.504 60.1428C10.6049 61.2549 10.9703 62.3266 11.5698 63.2687C12.1693 64.2107 12.9854 64.9957 13.9501 65.558C14.9147 66.1204 15.9999 66.4438 17.115 66.5013" stroke="#ED4C5C" stroke-width="4" stroke-linecap="round" stroke-linejoin="round"/>
</svg>
